# xmcd
#
# Track frame offsets: 
#        150
#        13140
#        26015
#        40345
#        52783
#        67545
#        81730
#        95733
#        107730
#        120243
#        134290
#        148135
#        161233
#        173843
#
# Disc length: 2503 seconds
#
# Revision: 3
# Processed by: cddbd v1.5.2PL0 Copyright (c) Steve Scherf et al.
# Submitted via: ExactAudioCopy v0.95b4
#
DISCID=bc09c50e
DTITLE=Furry Lewis - In His Prime  1927 - 1928
DYEAR=1900
DGENRE=Blues
TTITLE0=Good Looking Girl Blues
TTITLE1=Falling Down Blues
TTITLE2=I Will Turn Your Money Green
TTITLE3=Mean Old Bedbug Blues
TTITLE4=Furry's Blues
TTITLE5=Mistreatin' Mamma
TTITLE6=Cannonball Blues
TTITLE7=Jellyroll
TTITLE8=Why Don't You Come Home Blues
TTITLE9=Kassie Jones Part 1
TTITLE10=Kassie Jones Part 2
TTITLE11=Everybody's Blues
TTITLE12=Rock Island Blues
TTITLE13=Judge Harsh Blues
EXTD=
EXTT0=
EXTT1=
EXTT2=
EXTT3=
EXTT4=
EXTT5=
EXTT6=
EXTT7=
EXTT8=
EXTT9=
EXTT10=
EXTT11=
EXTT12=
EXTT13=
PLAYORDER=
